<svg width="40" height="40" viewBox="0 0 40 40" fill="none" xmlns="http://www.w3.org/2000/svg">
<path d="M8 22.3918C8 21.3827 8 20.8781 8.22166 20.4474C8.44333 20.0167 8.8539 19.7234 9.67505 19.1369L18.5042 12.8303C19.0655 12.4294 19.3462 12.2289 19.6667 12.2289C19.9871 12.2289 20.2678 12.4294 20.8291 12.8303L29.6583 19.1369C30.4794 19.7234 30.89 20.0167 31.1117 20.4474C31.3333 20.8781 31.3333 21.3827 31.3333 22.3918V33.3333C31.3333 34.2761 31.3333 34.7475 31.0404 35.0404C30.7475 35.3333 30.2761 35.3333 29.3333 35.3333H10C9.05719 35.3333 8.58579 35.3333 8.29289 35.0404C8 34.7475 8 34.2761 8 33.3333V22.3918Z" fill="#7E869E" fill-opacity="0.25"/>
<path d="M5 21.0532C5 21.3201 5 21.4535 5.0841 21.4947C5.16819 21.5358 5.27352 21.4539 5.48418 21.29L18.7721 10.955C19.362 10.4962 19.6569 10.2668 20 10.2668C20.3431 10.2668 20.638 10.4962 21.2279 10.955L34.5158 21.29C34.7265 21.4539 34.8318 21.5358 34.9159 21.4947C35 21.4535 35 21.3201 35 21.0532V19.3115C35 18.8311 35 18.5909 34.8983 18.383C34.7966 18.1751 34.607 18.0277 34.2279 17.7328L21.2279 7.62164C20.638 7.16287 20.3431 6.93349 20 6.93349C19.6569 6.93349 19.362 7.16287 18.7721 7.62164L5.77212 17.7328C5.39295 18.0277 5.20337 18.1751 5.10168 18.383C5 18.5909 5 18.8311 5 19.3115V21.0532Z" fill="#222222"/>
<path d="M22.1666 25H17.8333C16.7287 25 15.8333 25.8954 15.8333 27V34.85C15.8333 34.9328 15.9004 35 15.9833 35H24.0166C24.0994 35 24.1666 34.9328 24.1666 34.85V27C24.1666 25.8954 23.2712 25 22.1666 25Z" fill="#222222"/>
<rect x="26.6667" y="8.33337" width="3.33333" height="6.66667" rx="0.5" fill="#222222"/>
</svg>
