<svg xmlns="http://www.w3.org/2000/svg" xmlns:xlink="http://www.w3.org/1999/xlink" width="500" zoomAndPan="magnify" viewBox="0 0 375 374.999991" height="500" preserveAspectRatio="xMidYMid meet" version="1.0"><defs><g/><clipPath id="2676a8edf2"><path d="M 244.183594 165.652344 L 335 165.652344 L 335 209.425781 L 244.183594 209.425781 Z M 244.183594 165.652344 " clip-rule="nonzero"/></clipPath><clipPath id="74e95bc060"><path d="M 276.734375 165.652344 L 328.910156 165.652344 C 331.0625 165.652344 333.046875 166.804688 334.109375 168.675781 C 335.175781 170.542969 335.15625 172.835938 334.0625 174.6875 L 318.839844 200.390625 C 315.523438 205.992188 309.5 209.425781 302.988281 209.425781 L 250.8125 209.425781 C 248.664062 209.425781 246.679688 208.273438 245.613281 206.402344 C 244.546875 204.535156 244.566406 202.242188 245.664062 200.390625 L 260.882812 174.6875 C 264.199219 169.085938 270.226562 165.652344 276.734375 165.652344 Z M 276.734375 165.652344 " clip-rule="nonzero"/></clipPath></defs><g clip-path="url(#2676a8edf2)"><g clip-path="url(#74e95bc060)"><path fill="#000000" d="M 240.3125 165.652344 L 339.410156 165.652344 L 339.410156 209.425781 L 240.3125 209.425781 Z M 240.3125 165.652344 " fill-opacity="1" fill-rule="nonzero"/></g></g><g fill="#000000" fill-opacity="1"><g transform="translate(35.588623, 201.33608)"><g><path d="M 18.1875 -12.109375 L 23.421875 -12.109375 L 23.421875 -2.828125 C 22.128906 -1.921875 20.570312 -1.175781 18.75 -0.59375 C 16.925781 -0.0195312 15.1875 0.265625 13.53125 0.265625 C 9.90625 0.265625 6.878906 -0.894531 4.453125 -3.21875 C 2.023438 -5.539062 0.8125 -8.4375 0.8125 -11.90625 C 0.8125 -15.34375 2.054688 -18.21875 4.546875 -20.53125 C 7.046875 -22.84375 10.175781 -24 13.9375 -24 C 15.707031 -24 17.460938 -23.679688 19.203125 -23.046875 C 20.953125 -22.410156 22.4375 -21.550781 23.65625 -20.46875 L 20.265625 -16.359375 C 19.398438 -17.148438 18.398438 -17.773438 17.265625 -18.234375 C 16.140625 -18.703125 15.019531 -18.9375 13.90625 -18.9375 C 11.957031 -18.9375 10.316406 -18.257812 8.984375 -16.90625 C 7.660156 -15.5625 7 -13.894531 7 -11.90625 C 7 -9.882812 7.664062 -8.191406 9 -6.828125 C 10.34375 -5.472656 12 -4.796875 13.96875 -4.796875 C 15.238281 -4.796875 16.644531 -5.179688 18.1875 -5.953125 Z M 18.1875 -12.109375 "/></g></g></g><g fill="#000000" fill-opacity="1"><g transform="translate(58.909725, 201.33608)"><g><path d="M 10.578125 -18.59375 C 13.085938 -18.59375 15.039062 -18.007812 16.4375 -16.84375 C 17.832031 -15.675781 18.539062 -14.050781 18.5625 -11.96875 L 18.5625 0 L 12.8125 0 L 12.8125 -2.109375 C 11.613281 -0.523438 9.742188 0.265625 7.203125 0.265625 C 5.273438 0.265625 3.742188 -0.265625 2.609375 -1.328125 C 1.484375 -2.390625 0.921875 -3.769531 0.921875 -5.46875 C 0.921875 -7.21875 1.523438 -8.570312 2.734375 -9.53125 C 3.953125 -10.5 5.691406 -10.992188 7.953125 -11.015625 L 12.78125 -11.015625 L 12.78125 -11.28125 C 12.78125 -12.1875 12.476562 -12.894531 11.875 -13.40625 C 11.28125 -13.914062 10.394531 -14.171875 9.21875 -14.171875 C 7.5625 -14.171875 5.734375 -13.660156 3.734375 -12.640625 L 2.078125 -16.53125 C 5.046875 -17.90625 7.878906 -18.59375 10.578125 -18.59375 Z M 9.015625 -3.703125 C 9.941406 -3.703125 10.753906 -3.929688 11.453125 -4.390625 C 12.160156 -4.859375 12.601562 -5.46875 12.78125 -6.21875 L 12.78125 -7.859375 L 9.078125 -7.859375 C 7.304688 -7.859375 6.421875 -7.195312 6.421875 -5.875 C 6.421875 -5.195312 6.644531 -4.664062 7.09375 -4.28125 C 7.550781 -3.894531 8.191406 -3.703125 9.015625 -3.703125 Z M 9.015625 -3.703125 "/></g></g></g><g fill="#000000" fill-opacity="1"><g transform="translate(77.369388, 201.33608)"><g><path d="M 26.828125 -18.59375 C 28.847656 -18.59375 30.453125 -17.953125 31.640625 -16.671875 C 32.828125 -15.390625 33.421875 -13.6875 33.421875 -11.5625 L 33.421875 0 L 27.578125 0 L 27.578125 -9.921875 C 27.578125 -11.015625 27.289062 -11.875 26.71875 -12.5 C 26.15625 -13.125 25.382812 -13.4375 24.40625 -13.4375 C 23.320312 -13.40625 22.457031 -12.988281 21.8125 -12.1875 C 21.164062 -11.382812 20.84375 -10.347656 20.84375 -9.078125 L 20.84375 0 L 14.953125 0 L 14.953125 -9.921875 C 14.953125 -11.015625 14.675781 -11.875 14.125 -12.5 C 13.570312 -13.125 12.804688 -13.4375 11.828125 -13.4375 C 10.722656 -13.40625 9.835938 -12.984375 9.171875 -12.171875 C 8.515625 -11.359375 8.1875 -10.328125 8.1875 -9.078125 L 8.1875 0 L 2.34375 0 L 2.34375 -18.328125 L 8.1875 -18.328125 L 8.1875 -15.296875 C 9.4375 -17.453125 11.457031 -18.550781 14.25 -18.59375 C 15.71875 -18.59375 16.988281 -18.222656 18.0625 -17.484375 C 19.144531 -16.753906 19.910156 -15.742188 20.359375 -14.453125 C 21.566406 -17.171875 23.722656 -18.550781 26.828125 -18.59375 Z M 26.828125 -18.59375 "/></g></g></g><g fill="#000000" fill-opacity="1"><g transform="translate(110.685343, 201.33608)"><g><path d="M 10.375 -18.53125 C 13.539062 -18.53125 15.921875 -17.554688 17.515625 -15.609375 C 19.117188 -13.660156 19.820312 -10.984375 19.625 -7.578125 L 6.734375 -7.578125 C 7.023438 -6.492188 7.546875 -5.65625 8.296875 -5.0625 C 9.046875 -4.476562 9.960938 -4.1875 11.046875 -4.1875 C 12.722656 -4.1875 14.1875 -4.804688 15.4375 -6.046875 L 18.53125 -3.03125 C 16.5625 -0.875 13.898438 0.203125 10.546875 0.203125 C 7.578125 0.203125 5.210938 -0.644531 3.453125 -2.34375 C 1.691406 -4.039062 0.8125 -6.296875 0.8125 -9.109375 C 0.8125 -11.941406 1.691406 -14.21875 3.453125 -15.9375 C 5.210938 -17.664062 7.519531 -18.53125 10.375 -18.53125 Z M 6.625 -10.75 L 13.96875 -10.75 C 13.96875 -11.851562 13.644531 -12.742188 13 -13.421875 C 12.351562 -14.109375 11.5 -14.453125 10.4375 -14.453125 C 9.4375 -14.453125 8.597656 -14.113281 7.921875 -13.4375 C 7.242188 -12.769531 6.8125 -11.875 6.625 -10.75 Z M 6.625 -10.75 "/></g></g></g><g fill="#000000" fill-opacity="1"><g transform="translate(129.212995, 201.33608)"><g><path d="M 11.53125 -24.078125 C 15.082031 -24.078125 18.207031 -23.191406 20.90625 -21.421875 L 18.625 -16.6875 C 17.382812 -17.414062 16.050781 -18.007812 14.625 -18.46875 C 13.195312 -18.9375 11.992188 -19.171875 11.015625 -19.171875 C 9.265625 -19.171875 8.390625 -18.59375 8.390625 -17.4375 C 8.390625 -16.6875 8.820312 -16.082031 9.6875 -15.625 C 10.550781 -15.175781 11.597656 -14.785156 12.828125 -14.453125 C 14.066406 -14.128906 15.300781 -13.734375 16.53125 -13.265625 C 17.769531 -12.804688 18.820312 -12.054688 19.6875 -11.015625 C 20.550781 -9.972656 20.984375 -8.660156 20.984375 -7.078125 C 20.984375 -4.785156 20.085938 -3 18.296875 -1.71875 C 16.503906 -0.4375 14.222656 0.203125 11.453125 0.203125 C 9.484375 0.203125 7.535156 -0.132812 5.609375 -0.8125 C 3.679688 -1.5 2.003906 -2.429688 0.578125 -3.609375 L 2.921875 -8.265625 C 4.117188 -7.222656 5.535156 -6.363281 7.171875 -5.6875 C 8.804688 -5.019531 10.257812 -4.6875 11.53125 -4.6875 C 12.5 -4.6875 13.253906 -4.863281 13.796875 -5.21875 C 14.347656 -5.570312 14.625 -6.085938 14.625 -6.765625 C 14.625 -7.421875 14.3125 -7.96875 13.6875 -8.40625 C 13.0625 -8.851562 12.285156 -9.179688 11.359375 -9.390625 C 10.429688 -9.609375 9.421875 -9.898438 8.328125 -10.265625 C 7.242188 -10.628906 6.234375 -11.023438 5.296875 -11.453125 C 4.367188 -11.890625 3.59375 -12.578125 2.96875 -13.515625 C 2.351562 -14.453125 2.046875 -15.578125 2.046875 -16.890625 C 2.046875 -19.066406 2.910156 -20.804688 4.640625 -22.109375 C 6.367188 -23.421875 8.664062 -24.078125 11.53125 -24.078125 Z M 11.53125 -24.078125 "/></g></g></g><g fill="#000000" fill-opacity="1"><g transform="translate(149.168491, 201.33608)"><g><path d="M 13.875 -18.53125 C 16.457031 -18.53125 18.535156 -17.660156 20.109375 -15.921875 C 21.679688 -14.191406 22.46875 -11.910156 22.46875 -9.078125 C 22.46875 -6.285156 21.695312 -4.039062 20.15625 -2.34375 C 18.613281 -0.644531 16.566406 0.203125 14.015625 0.203125 C 11.609375 0.203125 9.734375 -0.679688 8.390625 -2.453125 L 8.390625 6.59375 L 2.515625 6.59375 L 2.515625 -18.328125 L 8.390625 -18.328125 L 8.390625 -15.90625 C 9.753906 -17.65625 11.582031 -18.53125 13.875 -18.53125 Z M 12.4375 -4.453125 C 13.664062 -4.453125 14.660156 -4.898438 15.421875 -5.796875 C 16.179688 -6.691406 16.5625 -7.84375 16.5625 -9.25 C 16.5625 -10.65625 16.179688 -11.800781 15.421875 -12.6875 C 14.660156 -13.570312 13.664062 -14.015625 12.4375 -14.015625 C 11.257812 -14.015625 10.289062 -13.570312 9.53125 -12.6875 C 8.769531 -11.800781 8.390625 -10.65625 8.390625 -9.25 C 8.390625 -7.820312 8.765625 -6.664062 9.515625 -5.78125 C 10.265625 -4.894531 11.238281 -4.453125 12.4375 -4.453125 Z M 12.4375 -4.453125 "/></g></g></g><g fill="#000000" fill-opacity="1"><g transform="translate(170.517821, 201.33608)"><g><path d="M 14.546875 -18.59375 C 16.566406 -18.59375 18.1875 -17.953125 19.40625 -16.671875 C 20.632812 -15.390625 21.25 -13.6875 21.25 -11.5625 L 21.25 0 L 15.375 0 L 15.375 -9.921875 C 15.375 -10.992188 15.082031 -11.835938 14.5 -12.453125 C 13.925781 -13.078125 13.140625 -13.390625 12.140625 -13.390625 C 11.003906 -13.390625 10.09375 -12.984375 9.40625 -12.171875 C 8.726562 -11.359375 8.390625 -10.316406 8.390625 -9.046875 L 8.390625 0 L 2.515625 0 L 2.515625 -25.234375 L 8.390625 -25.234375 L 8.390625 -15.296875 C 9.691406 -17.453125 11.742188 -18.550781 14.546875 -18.59375 Z M 14.546875 -18.59375 "/></g></g></g><g fill="#000000" fill-opacity="1"><g transform="translate(191.629181, 201.33608)"><g><path d="M 10.375 -18.53125 C 13.539062 -18.53125 15.921875 -17.554688 17.515625 -15.609375 C 19.117188 -13.660156 19.820312 -10.984375 19.625 -7.578125 L 6.734375 -7.578125 C 7.023438 -6.492188 7.546875 -5.65625 8.296875 -5.0625 C 9.046875 -4.476562 9.960938 -4.1875 11.046875 -4.1875 C 12.722656 -4.1875 14.1875 -4.804688 15.4375 -6.046875 L 18.53125 -3.03125 C 16.5625 -0.875 13.898438 0.203125 10.546875 0.203125 C 7.578125 0.203125 5.210938 -0.644531 3.453125 -2.34375 C 1.691406 -4.039062 0.8125 -6.296875 0.8125 -9.109375 C 0.8125 -11.941406 1.691406 -14.21875 3.453125 -15.9375 C 5.210938 -17.664062 7.519531 -18.53125 10.375 -18.53125 Z M 6.625 -10.75 L 13.96875 -10.75 C 13.96875 -11.851562 13.644531 -12.742188 13 -13.421875 C 12.351562 -14.109375 11.5 -14.453125 10.4375 -14.453125 C 9.4375 -14.453125 8.597656 -14.113281 7.921875 -13.4375 C 7.242188 -12.769531 6.8125 -11.875 6.625 -10.75 Z M 6.625 -10.75 "/></g></g></g><g fill="#000000" fill-opacity="1"><g transform="translate(210.156833, 201.33608)"><g><path d="M 8.234375 -18.328125 L 8.234375 -15.234375 C 9.523438 -17.429688 11.503906 -18.550781 14.171875 -18.59375 L 14.171875 -13.296875 C 12.492188 -13.453125 11.125 -13.171875 10.0625 -12.453125 C 9 -11.742188 8.390625 -10.734375 8.234375 -9.421875 L 8.234375 0 L 2.34375 0 L 2.34375 -18.328125 Z M 8.234375 -18.328125 "/></g></g></g><g fill="#000000" fill-opacity="1"><g transform="translate(222.735171, 201.33608)"><g><path d="M 10.375 -18.53125 C 13.539062 -18.53125 15.921875 -17.554688 17.515625 -15.609375 C 19.117188 -13.660156 19.820312 -10.984375 19.625 -7.578125 L 6.734375 -7.578125 C 7.023438 -6.492188 7.546875 -5.65625 8.296875 -5.0625 C 9.046875 -4.476562 9.960938 -4.1875 11.046875 -4.1875 C 12.722656 -4.1875 14.1875 -4.804688 15.4375 -6.046875 L 18.53125 -3.03125 C 16.5625 -0.875 13.898438 0.203125 10.546875 0.203125 C 7.578125 0.203125 5.210938 -0.644531 3.453125 -2.34375 C 1.691406 -4.039062 0.8125 -6.296875 0.8125 -9.109375 C 0.8125 -11.941406 1.691406 -14.21875 3.453125 -15.9375 C 5.210938 -17.664062 7.519531 -18.53125 10.375 -18.53125 Z M 6.625 -10.75 L 13.96875 -10.75 C 13.96875 -11.851562 13.644531 -12.742188 13 -13.421875 C 12.351562 -14.109375 11.5 -14.453125 10.4375 -14.453125 C 9.4375 -14.453125 8.597656 -14.113281 7.921875 -13.4375 C 7.242188 -12.769531 6.8125 -11.875 6.625 -10.75 Z M 6.625 -10.75 "/></g></g></g><g fill="#ffffff" fill-opacity="1"><g transform="translate(266.646695, 199.674992)"><g><path d="M 2.375 -23.796875 L 13.640625 -23.796875 C 16.304688 -23.796875 18.425781 -23.253906 20 -22.171875 C 21.582031 -21.097656 22.375 -19.65625 22.375 -17.84375 C 22.375 -16.601562 22.007812 -15.507812 21.28125 -14.5625 C 20.5625 -13.625 19.566406 -12.972656 18.296875 -12.609375 C 19.785156 -12.316406 20.972656 -11.625 21.859375 -10.53125 C 22.742188 -9.445312 23.1875 -8.132812 23.1875 -6.59375 C 23.1875 -4.570312 22.363281 -2.96875 20.71875 -1.78125 C 19.082031 -0.59375 16.859375 0 14.046875 0 L 2.375 0 Z M 8.390625 -19.171875 L 8.390625 -14.28125 L 13.296875 -14.28125 C 14.179688 -14.28125 14.882812 -14.5 15.40625 -14.9375 C 15.925781 -15.382812 16.1875 -15.992188 16.1875 -16.765625 C 16.1875 -17.515625 15.925781 -18.101562 15.40625 -18.53125 C 14.882812 -18.957031 14.179688 -19.171875 13.296875 -19.171875 Z M 8.390625 -9.921875 L 8.390625 -4.65625 L 13.296875 -4.65625 C 14.429688 -4.65625 15.320312 -4.894531 15.96875 -5.375 C 16.613281 -5.851562 16.9375 -6.507812 16.9375 -7.34375 C 16.9375 -8.132812 16.613281 -8.757812 15.96875 -9.21875 C 15.320312 -9.6875 14.429688 -9.921875 13.296875 -9.921875 Z M 8.390625 -9.921875 "/></g></g></g><g fill="#ffffff" fill-opacity="1"><g transform="translate(289.015912, 199.674992)"><g><path d="M 2.375 -23.796875 L 12.609375 -23.796875 C 16.347656 -23.796875 19.390625 -22.695312 21.734375 -20.5 C 24.085938 -18.300781 25.265625 -15.4375 25.265625 -11.90625 C 25.265625 -8.382812 24.070312 -5.519531 21.6875 -3.3125 C 19.3125 -1.101562 16.207031 0 12.375 0 L 2.375 0 Z M 8.4375 -18.96875 L 8.4375 -4.828125 L 12.75 -4.828125 C 14.601562 -4.828125 16.125 -5.476562 17.3125 -6.78125 C 18.507812 -8.082031 19.109375 -9.773438 19.109375 -11.859375 C 19.109375 -13.953125 18.484375 -15.660156 17.234375 -16.984375 C 15.992188 -18.304688 14.410156 -18.96875 12.484375 -18.96875 Z M 8.4375 -18.96875 "/></g></g></g></svg>