<svg width="50" height="50" viewBox="0 0 50 50" fill="none" xmlns="http://www.w3.org/2000/svg">
<g clip-path="url(#clip0_6_700)">
<path d="M1.5625 18.75C0.699512 18.75 0 18.0505 0 17.1875V1.5625C0 0.699512 0.699512 0 1.5625 0H17.1875C18.0505 0 18.75 0.699512 18.75 1.5625C18.75 2.42549 18.0505 3.125 17.1875 3.125H3.125V17.1875C3.125 18.0505 2.42549 18.75 1.5625 18.75Z" fill="white"/>
<path d="M48.4375 18.75C47.5745 18.75 46.875 18.0505 46.875 17.1875V3.125H32.8125C31.9495 3.125 31.25 2.42549 31.25 1.5625C31.25 0.699512 31.9495 0 32.8125 0H48.4375C49.3005 0 50 0.699512 50 1.5625V17.1875C50 18.0505 49.3005 18.75 48.4375 18.75Z" fill="white"/>
<path d="M17.1875 50H1.5625C0.699512 50 0 49.3005 0 48.4375V32.8125C0 31.9495 0.699512 31.25 1.5625 31.25C2.42549 31.25 3.125 31.9495 3.125 32.8125V46.875H17.1875C18.0505 46.875 18.75 47.5745 18.75 48.4375C18.75 49.3005 18.0505 50 17.1875 50Z" fill="white"/>
<path d="M48.4375 50H32.8125C31.9495 50 31.25 49.3005 31.25 48.4375C31.25 47.5745 31.9495 46.875 32.8125 46.875H46.875V32.8125C46.875 31.9495 47.5745 31.25 48.4375 31.25C49.3005 31.25 50 31.9495 50 32.8125V48.4375C50 49.3005 49.3005 50 48.4375 50Z" fill="white"/>
</g>
<g clip-path="url(#clip1_6_700)">
<path d="M25 25C30.8013 25 35.5 20.3013 35.5 14.5C35.5 8.69875 30.8013 4 25 4C19.1987 4 14.5 8.69875 14.5 14.5C14.5 20.3013 19.1987 25 25 25ZM25 30.25C17.9912 30.25 4 33.7675 4 40.75V46H46V40.75C46 33.7675 32.0088 30.25 25 30.25Z" fill="white"/>
</g>
<defs>
<clipPath id="clip0_6_700">
<rect width="50" height="50" fill="white"/>
</clipPath>
<clipPath id="clip1_6_700">
<rect width="50" height="50" fill="white"/>
</clipPath>
</defs>
</svg>
